<svg id="Capa_1" enable-background="new 30 0 512 512" height="50" viewBox="0 0 512 512" width="50" xmlns="http://www.w3.org/2000/svg"><g><g><path d="m256 42.667-10.667 10.666 10.667 19.334h177v76.666h30v-106.666z" fill="#6aa7fb"/><path d="m49 42.667v106.666h30v-76.666h177v-30z" fill="#7fc0fd"/></g><path d="m27.667 437.333h30v32h-30z" fill="#7fc0fd"/><path d="m454.333 437.333h30v32h-30z" fill="#6aa7fb"/><path d="m345.667 441.667h166.333v-260.334l-181.333-10.666z" fill="#dc4b4b"/><path d="m0 441.667h166.333l15-271-181.333 10.666z" fill="#e07037"/><g><path d="m256 170.667-10.667 149.333 10.667 121.667h89.667v-271z" fill="#0cba68"/><path d="m166.333 170.667h89.667v271h-89.667z" fill="#0ed678"/></g><g><path d="m256 123.667-10.667 25.667 10.667 31.999h256v-57.666z" fill="#fdae02"/><path d="m0 123.667h256v57.667h-256z" fill="#fdcb02"/></g><g><g><path d="m288 361.667v-30h-32l-10.667 9.667 10.667 20.333z" fill="#f7f0eb"/><path d="m224 331.667h32v30h-32z" fill="#fffbf5"/></g><g><path d="m288 297.667v-30h-32l-10.667 20.333 10.667 9.667z" fill="#f7f0eb"/><path d="m224 267.667h32v30h-32z" fill="#fffbf5"/></g></g><g><circle cx="107.667" cy="314.667" fill="#28485e" r="58.667"/><path d="m107.667 388.333c-40.62 0-73.666-33.047-73.666-73.667s33.046-73.666 73.666-73.666 73.666 33.047 73.666 73.666-33.047 73.667-73.666 73.667zm0-117.333c-24.078 0-43.667 19.589-43.667 43.667s19.589 43.667 43.666 43.667 43.666-19.589 43.666-43.667-19.588-43.667-43.665-43.667z" fill="#fffbf5"/></g><g><circle cx="404.333" cy="314.667" fill="#1b303e" r="58.667"/><path d="m404.333 388.333c-40.62 0-73.666-33.047-73.666-73.667s33.046-73.666 73.666-73.666 73.667 33.047 73.667 73.666-33.047 73.667-73.667 73.667zm0-117.333c-24.078 0-43.666 19.589-43.666 43.667s19.589 43.667 43.666 43.667c24.078 0 43.667-19.589 43.667-43.667s-19.589-43.667-43.667-43.667z" fill="#f7f0eb"/></g></g></svg>